# AST/ASF file generated using VICON BodyLanguage
# -----------------------------------------------
:version 1.10
:name VICON
:units
  mass 1.0
  length 0.45
  angle deg
:documentation
   .ast/.asf automatically generated from VICON data using
   VICON BodyBuilder and BodyLanguage model FoxedUp or BRILLIANT.MOD
:root
   order TX TY TZ RX RY RZ
   axis XYZ
   position 0 0 0  
   orientation 0 0 0 
:bonedata
  begin
     id 1 
     name lhipjoint
     direction 0.57768 -0.667037 0.470475 
     length 2.36008 
     axis 0 0 0  XYZ
  end
  begin
     id 2 
     name lfemur
     direction 0.34202 -0.939693 0  
     length 6.97235  
     axis 0 0 20  XYZ
    dof rx ry rz
    limits (-160.0 20.0)
           (-70.0 70.0)
           (-60.0 70.0)
  end
  begin
     id 3 
     name ltibia
     direction 0.34202 -0.939693 0   
     length 6.93428   
     axis 0 0 20   XYZ
    dof rx
    limits (-10.0 170.0)
  end
  begin
     id 4 
     name lfoot
     direction 0.133018 -0.365463 0.921272   
     length 2.18603   
     axis -90 7.62852e-016 20   XYZ
    dof rx rz
    limits (-45.0 90.0)
           (-70.0 20.0)
  end
  begin
     id 5 
     name ltoes
     direction 1.53519e-011 -4.22055e-011 1   
     length 1.07924   
     axis -90 7.62852e-016 20   XYZ
    dof rx
    limits (-90.0 20.0)
  end
  begin
     id 6 
     name rhipjoint
     direction -0.577712 -0.667019 0.470462   
     length 2.36015  
     axis 0 0 0  XYZ 
  end
  begin
     id 7 
     name rfemur
     direction -0.34202 -0.939693 0   
     length 6.71195   
     axis 0 0 -20   XYZ
    dof rx ry rz
    limits (-160.0 20.0)
           (-70.0 70.0)
           (-70.0 60.0)
  end
  begin
     id 8 
     name rtibia
     direction -0.34202 -0.939693 0   
     length 7.04592   
     axis 0 0 -20   XYZ
    dof rx
    limits (-10.0 170.0)
 end
 begin
     id 9 
     name rfoot
     direction -0.113796 -0.312651 0.943027   
     length 2.03846  
     axis -90 -7.62852e-016 -20   XYZ
    dof rx rz
    limits (-45.0 90.0)
           (-20.0 70.0)
  end
  begin
     id 10 
     name rtoes
     direction -1.53586e-011 -4.218e-011 1   
     length 1.01562   
     axis -90 -7.62852e-016 -20   XYZ
    dof rx
    limits (-90.0 20.0)
  end
  begin
     id 11 
     name lowerback
     direction -0.0417299 0.991937 -0.119667   
     length 2.05257   
     axis 0 0 0   XYZ
    dof rx ry rz
    limits (-20.0 45.0)
           (-30.0 30.0)
           (-30.0 30.0)
  end
  begin
     id 12 
     name upperback
     direction -0.00017666 0.999999 0.00105178   
     length 2.05693   
     axis 0 0 0   XYZ
    dof rx ry rz
    limits (-20.0 45.0)
           (-30.0 30.0)
           (-30.0 30.0)
  end
  begin
     id 13 
     name thorax
     direction 0.0185169 0.998203 0.0569866   
     length 2.0932   
     axis 0 0 0   XYZ
    dof rx ry rz
    limits (-20.0 45.0)
           (-30.0 30.0)
           (-30.0 30.0)
  end
  begin
     id 14 
     name lowerneck
     direction -0.0212406 0.982645 0.184277   
     length 1.72509   
     axis 0 0 0   XYZ
    dof rx ry rz
    limits (-20.0 45.0)
           (-30.0 30.0)
           (-30.0 30.0)
  end
  begin
     id 15 
     name upperneck
     direction 0.00528579 0.965323 -0.261004   
     length 1.76294   
     axis 0 0 0   XYZ
    dof rx ry rz
    limits (-20.0 45.0)
           (-30.0 30.0)
           (-30.0 30.0)
  end
  begin
     id 16
     name head
     direction 0.00695421 0.994078 -0.108445  
     length 1.78678  
     axis 0 0 0   XYZ
    dof rx ry rz
    limits (-20.0 45.0)
           (-30.0 30.0)
           (-30.0 30.0)
  end
  begin
     id 17 
     name lclavicle
     direction 0.97277 0.211305 -0.095232  
     length 3.84823  
     axis 0 0 0   XYZ
    dof ry rz
    limits (-20.0 10.0)
           (0.0 20.0)
  end
  begin
     id 18 
     name lhumerus
     direction 1 -4.48957e-011 -1.98313e-027   
     length 4.97185   
     axis 180 -30 -90   XYZ
    dof rx ry rz
    limits (-60.0 90.0)
           (-90.0 90.0)
           (-90.0 90.0)
  end
  begin
     id 19
     name lradius
     direction 1 -4.4898e-011 7.31063e-027   
     length 3.35811   
     axis 180 -30 -90   XYZ
    dof rx
    limits (-10.0 170.0)
  end
  begin
     id 20
     name lwrist
     direction 1 -4.48938e-011 9.95048e-027   
     length 1.67905   
     axis -8.75986e-015 90 90   XYZ
    dof ry
    limits (-180.0 0.0)
 end
  begin
     id 21 
     name lhand
     direction 1 -4.4901e-011 1.9901e-026   
     length 0.622776   
     axis -1.26985e-014 90 90   XYZ
    dof rx rz
    limits (-90.0 90.0)
           (-45.0 45.0)
  end
  begin
     id 22 
     name lfingers
     direction 1 -4.48961e-011 3.98019e-026   
     length 0.502098   
     axis -2.5397e-014 90 90   XYZ
    dof rx
    limits (0.0 90.0)
  end
  begin
     id 23
     name lthumb
     direction 0.707107 -6.34933e-011 0.707107   
     length 0.720915   
     axis -90 45 2.85299e-015   XYZ
    dof rx rz
    limits (-45.0 45.0)
           (-45.0 45.0)
  end
  begin
     id 24 
     name rclavicle
     direction -0.990867 0.133739 -0.0172226   
     length 3.78845  
     axis 0 0 0   XYZ 
    dof ry rz
    limits (-10.0 20.0)
           (-20.0 0.0)
  end
  begin
     id 25 
     name rhumerus
     direction -1 -4.48972e-011 -1.99267e-027  
     length 4.96493   
     axis 180 30 90   XYZ
    dof rx ry rz
    limits (-90.0 60.0)
           (-90.0 90.0)
           (-90.0 90.0)
  end
  begin
     id 26 
     name rradius
     direction -1 -4.48969e-011 8.96093e-027   
     length 3.34929   
     axis 180 30 90   XYZ
    dof rx
    limits (-10.0 170.0)
  end
  begin
     id 27 
     name rwrist
     direction -1 -4.48953e-011 9.95048e-027   
     length 1.67464   
     axis -8.75986e-015 -90 -90   XYZ
    dof ry
    limits (-180.0 0.0)
  end
  begin
     id 28
     name rhand
     direction -1 -4.49001e-011 1.9901e-026   
     length 0.638041   
     axis -1.26985e-014 -90 -90   XYZ
    dof rx rz
    limits (-90.0 90.0)
           (-45.0 45.0)
  end
  begin
     id 29
     name rfingers
     direction -1 -4.48967e-011 3.98019e-026   
     length 0.514405   
     axis -2.5397e-014 -90 -90   XYZ
    dof rx
    limits (0.0 90.0)
  end
  begin
     id 30
     name rthumb
     direction -0.707107 -6.34904e-011 0.707107   
     length 0.738586   
     axis -90 -45 -2.85299e-015   XYZ
    dof rx rz
    limits (-45.0 45.0)
           (-45.0 45.0)
  end
:hierarchy
  begin
    root lhipjoint rhipjoint lowerback
    lhipjoint lfemur
    lfemur ltibia
    ltibia lfoot
    lfoot ltoes
    rhipjoint rfemur
    rfemur rtibia
    rtibia rfoot
    rfoot rtoes
    lowerback upperback
    upperback thorax
    thorax lowerneck lclavicle rclavicle
    lowerneck upperneck
    upperneck head
    lclavicle lhumerus
    lhumerus lradius
    lradius lwrist
    lwrist lhand lthumb
    lhand lfingers
    rclavicle rhumerus
    rhumerus rradius
    rradius rwrist
    rwrist rhand rthumb
    rhand rfingers
  end

#!OML:ASF E:\Mandelcareful walks\Project 1\Capture day 1\Session 1\Subject1.ASF
:FULLY-SPECIFIED
:DEGREES
214
root 13.999 15.4269 15.0153 -11.973 94.8927 -14.9764
lowerback 13.2378 -1.9542 -7.90805
upperback 4.2979 -3.42885 -2.40782
thorax -2.53899 -1.6057 2.42499
lowerneck -20.2088 10.5733 4.38702
upperneck 30.1498 19.9912 -12.9963
head 16.119 7.50832 -1.97677
rclavicle 2.78299e-015 1.59028e-014
rhumerus -53.2601 7.16005 -83.1941
rradius 51.866
rwrist -18.8913
rhand -5.00104 -19.765
rfingers 7.12502
rthumb 20.7924 -48.671
lclavicle 2.78299e-015 1.59028e-014
lhumerus -30.696 -5.97318 80.7654
lradius 78.3181
lwrist 32.2935
lhand -32.2777 -13.0522
lfingers 7.12502
lthumb -5.51683 16.856
rfemur -37.2714 -8.07938 4.62859
rtibia 75.7464
rfoot -13.8412 -12.5822
rtoes -1.06345
lfemur -14.6339 7.12264 -35.6706
ltibia 49.3527
lfoot -35.5632 8.83661
ltoes 24.463
215
root 14.6139 15.5382 15.006 -8.70484 96.4248 -12.4976
lowerback 12.2921 -2.44019 -7.54163
upperback 3.97843 -3.97815 -2.36311
thorax -2.33462 -1.8896 2.30455
lowerneck -20.3192 10.4658 4.11089
upperneck 30.1629 20.0205 -13.1458
head 16.1499 7.47123 -1.9814
rclavicle 1.03368e-014 -1.11319e-014
rhumerus -55.514 7.40862 -82.7139
rradius 51.5944
rwrist -16.8124
rhand -4.48487 -19.427
rfingers 7.12502
rthumb 21.2883 -48.2778
lclavicle 1.03368e-014 -1.11319e-014
lhumerus -30.571 -7.48964 81.0579
lradius 82.3937
lwrist 31.8042
lhand -32.5494 -15.0897
lfingers 7.12502
lthumb -5.77918 14.8115
rfemur -39.4442 -7.22543 4.94723
rtibia 70.143
rfoot -14.6477 -14.4918
rtoes -0.389393
lfemur -11.0581 6.2008 -35.0405
ltibia 46.2309
lfoot -35.2469 7.79952
ltoes 24.3447
216
root 15.2531 15.6744 14.9825 -5.85528 97.5799 -10.3643
lowerback 11.055 -2.85124 -7.08224
upperback 3.87362 -4.37919 -2.28067
thorax -1.76473 -2.11549 2.11695
lowerneck -20.75 10.6257 4.19782
upperneck 30.1891 20.5094 -13.6842
head 16.438 7.58792 -2.07608
rclavicle 1.55052e-014 6.36111e-015
rhumerus -57.2804 7.77356 -82.3631
rradius 51.8305
rwrist -15.9608
rhand -3.75943 -19.7686
rfingers 7.12502
rthumb 21.985 -48.5392
lclavicle 1.55052e-014 6.36111e-015
lhumerus -30.496 -9.24935 81.3037
lradius 86.0186
lwrist 30.7887
lhand -32.5067 -18.472
lfingers 7.12502
lthumb -5.73795 11.4303
rfemur -40.8605 -6.05751 5.11498
rtibia 63.4402
rfoot -14.9253 -15.4913
rtoes -0.0601785
lfemur -7.21585 5.20062 -34.2569
ltibia 42.5843
lfoot -33.9996 7.48218
ltoes 22.3486
217
root 15.9062 15.8264 14.9499 -1.93731 98.5673 -7.15786
lowerback 9.70289 -3.19715 -6.40452
upperback 3.80453 -4.6779 -2.15012
thorax -1.11957 -2.29114 1.82646
lowerneck -21.6911 10.7644 4.28705
upperneck 30.5613 20.9118 -13.8904
head 16.9552 7.65047 -2.03332
rclavicle 2.42517e-014 -4.77083e-015
rhumerus -58.9999 8.28597 -82.234
rradius 52.6362
rwrist -16.7308
rhand -3.47796 -19.746
rfingers 7.12502
rthumb 22.2552 -48.4846
lclavicle 2.42517e-014 -4.77083e-015
lhumerus -30.575 -11.248 81.457
lradius 89.2887
lwrist 28.951
lhand -32.7234 -20.7804
lfingers 7.12502
lthumb -5.94715 9.11617
rfemur -41.6735 -4.78028 5.29747
rtibia 56.0078
rfoot -12.2247 -15.5382
rtoes -4.26821
lfemur -3.34124 4.07011 -33.1856
ltibia 38.7124
lfoot -31.8486 7.28225
ltoes 19.7222
218
root 16.5681 15.9716 14.912 1.70468 99.4114 -4.35917
lowerback 8.20962 -3.47436 -5.72492
upperback 3.36869 -4.93269 -1.95452
thorax -0.778021 -2.43413 1.59305
lowerneck -21.5209 10.8593 4.3507
upperneck 30.8097 21.2074 -13.987
head 17.1128 7.77235 -2.02099
rclavicle -3.33958e-014 1.59028e-015
rhumerus -61.4571 9.16162 -82.2594
rradius 54.0092
rwrist -18.4529
rhand -3.36701 -19.2548
rfingers 7.12502
rthumb 22.3617 -47.9807
lclavicle -3.33958e-014 1.59028e-015
lhumerus -31.6945 -13.2941 81.8431
lradius 91.8089
lwrist 25.9663
lhand -32.073 -24.7379
lfingers 7.12502
lthumb -5.31917 5.17534
rfemur -42.2739 -3.52506 5.28071
rtibia 48.4083
rfoot -8.29473 -14.8955
rtoes -7.7062
lfemur 0.226359 2.85532 -32.122
ltibia 34.9294
lfoot -28.9408 7.15699
ltoes 17.6741
219
root 17.2421 16.1149 14.8659 4.4119 100.298 -2.49918
lowerback 6.46747 -3.61564 -5.05174
upperback 3.04734 -5.00001 -1.81724
thorax -0.193436 -2.4866 1.25978
lowerneck -21.6237 10.7708 4.29349
upperneck 31.2573 21.2263 -13.8765
head 17.3466 7.7653 -1.96142
rclavicle -4.33351e-014 1.66979e-014
rhumerus -63.3633 9.29836 -81.8916
rradius 55.1132
rwrist -19.5023
rhand -2.40199 -19.1946
rfingers 7.12502
rthumb 23.2878 -47.8062
lclavicle -4.33351e-014 1.66979e-014
lhumerus -32.8109 -15.4743 82.3227
lradius 94.1229
lwrist 22.7205
lhand -31.8529 -28.2423
lfingers 7.12502
lthumb -5.1067 1.67612
rfemur -42.6421 -2.3923 4.93523
rtibia 41.2302
rfoot -3.65342 -14.1651
rtoes -12.9004
lfemur 3.3598 1.59559 -31.2436
ltibia 31.644
lfoot -25.2171 7.65431
ltoes 14.5971
220
root 17.9249 16.2456 14.8158 5.9526 101.465 -1.70184
lowerback 4.80076 -3.77679 -4.64635
upperback 2.58934 -5.13844 -1.63986
thorax 0.244574 -2.5693 1.12376
lowerneck -21.2524 10.5561 4.21132
upperneck 31.8321 21.1245 -13.754
head 17.5153 7.74367 -1.94988
rclavicle 2.52457e-014 -2.22639e-014
rhumerus -65.1396 9.50042 -81.3699
rradius 55.7871
rwrist -19.8183
rhand -0.882203 -18.7264
rfingers 7.12502
rthumb 24.7451 -47.1458
lclavicle 2.52457e-014 -2.22639e-014
lhumerus -34.6583 -17.4264 83.3193
lradius 95.7946
lwrist 20.1281
lhand -31.8565 -29.6319
lfingers 7.12502
lthumb -5.1102 0.28652
rfemur -42.625 -1.69926 4.36563
rtibia 35.1207
rfoot -0.455037 -13.1881
rtoes -17.0379
lfemur 5.90464 0.483323 -30.4888
ltibia 29.398
lfoot -21.0564 8.44962
ltoes 8.49906
221
root 18.6002 16.3411 14.7732 7.22027 102.85 -1.08083
lowerback 3.33326 -4.04503 -4.4659
upperback 2.15461 -5.44317 -1.39705
thorax 0.635293 -2.73339 1.18723
lowerneck -20.7274 10.4185 4.33387
upperneck 32.0893 21.1242 -13.9775
head 17.5912 7.77204 -2.095
rclavicle -2.50469e-014 -1.74931e-014
rhumerus -66.5488 10.6184 -81.3576
rradius 56.5251
rwrist -20.5793
rhand 0.193306 -17.8956
rfingers 7.12502
rthumb 25.7755 -46.1696
lclavicle -2.50469e-014 -1.74931e-014
lhumerus -36.5151 -18.5386 84.3097
lradius 96.9251
lwrist 18.9755
lhand -31.6615 -30.7328
lfingers 7.12502
lthumb -4.92192 -0.809993
rfemur -42.4691 -1.13326 3.78996
rtibia 30.6211
rfoot 1.62345 -12.0952
rtoes -17.8446
lfemur 7.52968 -0.266715 -29.5702
ltibia 28.8559
lfoot -17.3501 8.65482
ltoes 8.31722
222
root 19.2505 16.401 14.7382 7.13804 104.265 -1.9516
lowerback 1.81301 -4.3519 -4.71402
upperback 2.00553 -5.78246 -1.27386
thorax 1.38626 -2.92258 1.33078
lowerneck -21.1419 10.4848 4.53328
upperneck 32.37 21.4086 -14.2322
head 17.9733 7.83987 -2.14621
rclavicle 0 -4.77083e-015
rhumerus -66.6565 11.8771 -81.5659
rradius 56.9964
rwrist -21.2885
rhand -0.027161 -16.6003
rfingers 7.12502
rthumb 25.5644 -44.9048
lclavicle 0 -4.77083e-015
lhumerus -37.3487 -19.3017 84.9535
lradius 97.0972
lwrist 19.7006
lhand -31.9251 -30.962
lfingers 7.12502
lthumb -5.1764 -1.04527
rfemur -42.2907 -0.854923 3.06069
rtibia 28.2608
rfoot 2.0075 -14.1081
rtoes -19.9766
lfemur 7.67605 -0.741938 -28.9411
ltibia 30.576
lfoot -13.778 9.22214
ltoes 7.7301
